<svg id="svg" xmlns="http://www.w3.org/2000/svg" xmlns:xlink="http://www.w3.org/1999/xlink" width="400" height="220" viewBox="0, 0, 400,220"><g id="svgg"><path id="path0" d="M146.197 33.000 C 131.915 51.150,93.129 100.500,60.006 142.667 L -0.218 219.333 38.173 219.688 C 76.531 220.042,76.567 220.039,79.500 217.021 C 82.080 214.365,108.156 181.500,161.503 113.667 C 170.298 102.483,177.758 93.333,178.080 93.333 C 178.403 93.333,178.667 101.133,178.667 110.667 L 178.667 128.000 170.759 128.000 L 162.852 128.000 144.708 152.333 L 126.563 176.667 152.615 177.028 L 178.667 177.390 178.667 198.695 L 178.667 220.000 212.667 220.000 L 246.667 220.000 246.667 110.000 L 246.667 0.000 209.415 0.000 L 172.164 0.000 146.197 33.000 M284.783 47.967 C 265.286 74.348,249.333 96.312,249.333 96.776 C 249.333 97.239,265.937 125.154,286.230 158.809 L 323.127 220.000 360.897 220.000 C 381.670 220.000,398.667 219.661,398.667 219.247 C 398.667 218.833,380.353 191.198,357.970 157.836 C 333.965 122.057,317.660 96.525,318.217 95.588 C 318.737 94.715,335.551 73.151,355.581 47.668 C 375.611 22.186,392.000 1.036,392.000 0.668 C 392.000 0.301,375.852 0.000,356.117 0.000 L 320.233 0.000 284.783 47.967 " stroke="none" fill="#000000" fill-rule="evenodd"></path></g></svg>